<svg xmlns="http://www.w3.org/2000/svg" viewBox="0 0 24 24" data-rtl-flip="true"><path d="M15.0871 19.2361C14.9677 19.2367 14.8495 19.2134 14.7392 19.1676C14.629 19.1219 14.5289 19.0546 14.4451 18.9696L8.38799 12.9125C8.26332 12.7891 8.16475 12.6418 8.09815 12.4795C8.03156 12.3172 7.99829 12.1431 8.00034 11.9676C7.99246 11.6171 8.12303 11.2776 8.36376 11.0227L14.4208 4.96566C14.5912 4.79552 14.8221 4.69995 15.0629 4.69995C15.3037 4.69995 15.5346 4.79552 15.7049 4.96566C15.7907 5.04918 15.8588 5.14902 15.9053 5.25929C15.9518 5.36957 15.9758 5.48803 15.9758 5.60771C15.9758 5.72739 15.9518 5.84586 15.9053 5.95613C15.8588 6.0664 15.7907 6.16624 15.7049 6.24976L10.0113 11.9676L15.7292 17.6855C15.8149 17.769 15.883 17.8689 15.9295 17.9792C15.976 18.0894 16 18.2079 16 18.3276C16 18.4473 15.976 18.5657 15.9295 18.676C15.883 18.7863 15.8149 18.8861 15.7292 18.9696C15.6457 19.0551 15.5458 19.1228 15.4354 19.1686C15.3251 19.2144 15.2066 19.2374 15.0871 19.2361Z"/></svg>